<?xml version="1.0" encoding="UTF-8" standalone="no"?>
<!-- Created with Inkscape (http://www.inkscape.org/) -->

<svg
   width="16"
   height="16"
   id="svg2"
   sodipodi:version="0.32"
   inkscape:version="1.3 (0e150ed6c4, 2023-07-21)"
   version="1.0"
   sodipodi:docname="oldarch.svg"
   inkscape:output_extension="org.inkscape.output.svg.inkscape"
   style="display:inline"
   xmlns:inkscape="http://www.inkscape.org/namespaces/inkscape"
   xmlns:sodipodi="http://sodipodi.sourceforge.net/DTD/sodipodi-0.dtd"
   xmlns:xlink="http://www.w3.org/1999/xlink"
   xmlns="http://www.w3.org/2000/svg"
   xmlns:svg="http://www.w3.org/2000/svg"
   xmlns:rdf="http://www.w3.org/1999/02/22-rdf-syntax-ns#"
   xmlns:cc="http://creativecommons.org/ns#"
   xmlns:dc="http://purl.org/dc/elements/1.1/">
  <defs
     id="defs4">
    <linearGradient
       id="linearGradient3722">
      <stop
         id="stop3724"
         offset="0"
         style="stop-color:#aaaaaa;stop-opacity:1;" />
      <stop
         id="stop3726"
         offset="1"
         style="stop-color:#f0f0f0;stop-opacity:1;" />
    </linearGradient>
    <linearGradient
       id="linearGradient3295">
      <stop
         style="stop-color:#559829;stop-opacity:1;"
         offset="0"
         id="stop3297" />
      <stop
         style="stop-color:#86c837;stop-opacity:1;"
         offset="1"
         id="stop3299" />
    </linearGradient>
    <linearGradient
       id="linearGradient3287">
      <stop
         style="stop-color:#cd0000;stop-opacity:1;"
         offset="0"
         id="stop3289" />
      <stop
         style="stop-color:#e55300;stop-opacity:1;"
         offset="1"
         id="stop3291" />
    </linearGradient>
    <linearGradient
       id="linearGradient3279">
      <stop
         style="stop-color:#f08e00;stop-opacity:1;"
         offset="0"
         id="stop3281" />
      <stop
         style="stop-color:#ffd200;stop-opacity:1;"
         offset="1"
         id="stop3283" />
    </linearGradient>
    <linearGradient
       id="linearGradient3271">
      <stop
         style="stop-color:#395d93;stop-opacity:1;"
         offset="0"
         id="stop3273" />
      <stop
         style="stop-color:#6e92c7;stop-opacity:1;"
         offset="1"
         id="stop3275" />
    </linearGradient>
    <linearGradient
       inkscape:collect="always"
       id="linearGradient3327">
      <stop
         style="stop-color:#000000;stop-opacity:1;"
         offset="0"
         id="stop3330" />
      <stop
         style="stop-color:#000000;stop-opacity:0;"
         offset="1"
         id="stop3333" />
    </linearGradient>
    <linearGradient
       inkscape:collect="always"
       xlink:href="#linearGradient3327"
       id="linearGradient3335"
       x1="11.375"
       y1="22"
       x2="11.375"
       y2="-9.817296"
       gradientUnits="userSpaceOnUse" />
    <inkscape:perspective
       sodipodi:type="inkscape:persp3d"
       inkscape:vp_x="0 : 11 : 1"
       inkscape:vp_y="0 : 1000 : 0"
       inkscape:vp_z="22 : 11 : 1"
       inkscape:persp3d-origin="11 : 7.3333333 : 1"
       id="perspective102" />
    <linearGradient
       id="linearGradient4081">
      <stop
         style="stop-color:#aaaaaa;stop-opacity:1;"
         offset="0"
         id="stop4083" />
      <stop
         style="stop-color:#f0f0f0;stop-opacity:1;"
         offset="1"
         id="stop4085" />
    </linearGradient>
    <linearGradient
       id="linearGradient4057">
      <stop
         style="stop-color:#816647;stop-opacity:1;"
         offset="0"
         id="stop4059" />
      <stop
         style="stop-color:#a6845d;stop-opacity:1;"
         offset="1"
         id="stop4061" />
    </linearGradient>
    <linearGradient
       id="linearGradient3929">
      <stop
         style="stop-color:#000000;stop-opacity:1;"
         offset="0"
         id="stop3931" />
      <stop
         style="stop-color:#000000;stop-opacity:0;"
         offset="1"
         id="stop3933" />
    </linearGradient>
    <linearGradient
       inkscape:collect="always"
       xlink:href="#linearGradient3929"
       id="linearGradient4051"
       x1="9.494998"
       y1="15.516565"
       x2="9.494998"
       y2="-4.1786065"
       gradientUnits="userSpaceOnUse" />
    <linearGradient
       inkscape:collect="always"
       xlink:href="#linearGradient4057"
       id="linearGradient4063"
       x1="9.17138"
       y1="21.000002"
       x2="9.17138"
       y2="0.97239029"
       gradientUnits="userSpaceOnUse" />
    <linearGradient
       inkscape:collect="always"
       xlink:href="#linearGradient4081"
       id="linearGradient4089"
       x1="6.101758"
       y1="154.58195"
       x2="6.101758"
       y2="36.995476"
       gradientUnits="userSpaceOnUse" />
    <linearGradient
       inkscape:collect="always"
       xlink:href="#linearGradient4081"
       id="linearGradient4103"
       gradientUnits="userSpaceOnUse"
       x1="6.101758"
       y1="154.58195"
       x2="6.101758"
       y2="36.995476" />
    <linearGradient
       inkscape:collect="always"
       xlink:href="#linearGradient4081"
       id="linearGradient4105"
       gradientUnits="userSpaceOnUse"
       x1="6.101758"
       y1="154.58195"
       x2="6.101758"
       y2="36.995476" />
    <linearGradient
       inkscape:collect="always"
       xlink:href="#linearGradient4081"
       id="linearGradient4107"
       gradientUnits="userSpaceOnUse"
       x1="6.101758"
       y1="154.58195"
       x2="6.101758"
       y2="36.995476" />
    <linearGradient
       inkscape:collect="always"
       xlink:href="#linearGradient4081"
       id="linearGradient4109"
       gradientUnits="userSpaceOnUse"
       x1="6.101758"
       y1="154.58195"
       x2="6.101758"
       y2="36.995476" />
    <linearGradient
       inkscape:collect="always"
       xlink:href="#linearGradient4081"
       id="linearGradient4111"
       gradientUnits="userSpaceOnUse"
       x1="6.101758"
       y1="154.58195"
       x2="6.101758"
       y2="36.995476" />
    <linearGradient
       inkscape:collect="always"
       xlink:href="#linearGradient4081"
       id="linearGradient4113"
       gradientUnits="userSpaceOnUse"
       x1="6.101758"
       y1="154.58195"
       x2="6.101758"
       y2="36.995476" />
    <linearGradient
       inkscape:collect="always"
       xlink:href="#linearGradient4081"
       id="linearGradient4115"
       gradientUnits="userSpaceOnUse"
       x1="6.101758"
       y1="154.58195"
       x2="6.101758"
       y2="36.995476" />
    <linearGradient
       inkscape:collect="always"
       xlink:href="#linearGradient4081"
       id="linearGradient4117"
       gradientUnits="userSpaceOnUse"
       x1="6.101758"
       y1="154.58195"
       x2="6.101758"
       y2="36.995476" />
    <linearGradient
       inkscape:collect="always"
       xlink:href="#linearGradient4081"
       id="linearGradient4119"
       gradientUnits="userSpaceOnUse"
       x1="6.101758"
       y1="154.58195"
       x2="6.101758"
       y2="36.995476" />
    <linearGradient
       inkscape:collect="always"
       xlink:href="#linearGradient4081"
       id="linearGradient4121"
       gradientUnits="userSpaceOnUse"
       x1="6.101758"
       y1="154.58195"
       x2="6.101758"
       y2="36.995476" />
    <linearGradient
       inkscape:collect="always"
       xlink:href="#linearGradient4081"
       id="linearGradient4123"
       gradientUnits="userSpaceOnUse"
       x1="6.101758"
       y1="154.58195"
       x2="6.101758"
       y2="36.995476" />
    <linearGradient
       inkscape:collect="always"
       xlink:href="#linearGradient4081"
       id="linearGradient4125"
       gradientUnits="userSpaceOnUse"
       x1="6.101758"
       y1="154.58195"
       x2="6.101758"
       y2="36.995476" />
    <linearGradient
       inkscape:collect="always"
       xlink:href="#linearGradient4081"
       id="linearGradient4127"
       gradientUnits="userSpaceOnUse"
       x1="6.101758"
       y1="154.58195"
       x2="6.101758"
       y2="36.995476" />
    <linearGradient
       inkscape:collect="always"
       xlink:href="#linearGradient4081"
       id="linearGradient4129"
       gradientUnits="userSpaceOnUse"
       x1="6.101758"
       y1="154.58195"
       x2="6.101758"
       y2="36.995476" />
    <linearGradient
       inkscape:collect="always"
       xlink:href="#linearGradient4081"
       id="linearGradient4132"
       gradientUnits="userSpaceOnUse"
       x1="6.101758"
       y1="154.58195"
       x2="6.101758"
       y2="36.995476"
       gradientTransform="matrix(0.1317916,0,0,0.1317916,11.619896,-1.9882468)" />
    <linearGradient
       inkscape:collect="always"
       xlink:href="#linearGradient4081"
       id="linearGradient4141"
       gradientUnits="userSpaceOnUse"
       x1="6.101758"
       y1="154.58195"
       x2="6.101758"
       y2="36.995476"
       gradientTransform="matrix(0.1317916,0,0,0.1317916,11.619896,-1.9882468)" />
    <linearGradient
       inkscape:collect="always"
       xlink:href="#linearGradient4081"
       id="linearGradient4148"
       gradientUnits="userSpaceOnUse"
       x1="6.101758"
       y1="154.58195"
       x2="6.101758"
       y2="36.995476"
       gradientTransform="matrix(0.1317916,0,0,0.1317916,11.619896,-1.9882468)" />
    <linearGradient
       inkscape:collect="always"
       xlink:href="#linearGradient4081"
       id="linearGradient4158"
       gradientUnits="userSpaceOnUse"
       x1="6.101758"
       y1="154.58195"
       x2="6.101758"
       y2="36.995476"
       gradientTransform="matrix(0.1317916,0,0,0.1317916,11.619896,-1.9882468)" />
    <linearGradient
       inkscape:collect="always"
       xlink:href="#linearGradient4081"
       id="linearGradient4180"
       gradientUnits="userSpaceOnUse"
       x1="6.101758"
       y1="154.58195"
       x2="6.101758"
       y2="36.995476" />
    <linearGradient
       inkscape:collect="always"
       xlink:href="#linearGradient4081"
       id="linearGradient4182"
       gradientUnits="userSpaceOnUse"
       gradientTransform="matrix(0.1317916,0,0,0.1317916,11.619896,-1.9882468)"
       x1="6.101758"
       y1="154.58195"
       x2="6.101758"
       y2="36.995476" />
    <linearGradient
       inkscape:collect="always"
       xlink:href="#linearGradient4081"
       id="linearGradient4184"
       gradientUnits="userSpaceOnUse"
       x1="6.101758"
       y1="154.58195"
       x2="6.101758"
       y2="36.995476" />
    <linearGradient
       inkscape:collect="always"
       xlink:href="#linearGradient4081"
       id="linearGradient4186"
       gradientUnits="userSpaceOnUse"
       gradientTransform="matrix(0.1317916,0,0,0.1317916,11.619896,-1.9882468)"
       x1="6.101758"
       y1="154.58195"
       x2="6.101758"
       y2="36.995476" />
    <linearGradient
       inkscape:collect="always"
       xlink:href="#linearGradient4081"
       id="linearGradient2480"
       gradientUnits="userSpaceOnUse"
       gradientTransform="matrix(0.1256322,0,0,0.1256322,11.921746,-1.0005124)"
       x1="6.101758"
       y1="154.58195"
       x2="6.101758"
       y2="36.995476" />
    <linearGradient
       inkscape:collect="always"
       xlink:href="#linearGradient4081"
       id="linearGradient2483"
       gradientUnits="userSpaceOnUse"
       gradientTransform="matrix(0.1256322,0,0,0.1256322,11.921746,-1.0005124)"
       x1="6.101758"
       y1="154.58195"
       x2="6.101758"
       y2="36.995476" />
    <linearGradient
       inkscape:collect="always"
       xlink:href="#linearGradient4081"
       id="linearGradient2489"
       gradientUnits="userSpaceOnUse"
       gradientTransform="matrix(0.1256322,0,0,0.1256322,11.921746,-1.0005124)"
       x1="6.101758"
       y1="154.58195"
       x2="6.101758"
       y2="36.995476" />
    <linearGradient
       inkscape:collect="always"
       xlink:href="#linearGradient4081"
       id="linearGradient2495"
       gradientUnits="userSpaceOnUse"
       gradientTransform="matrix(0.1256322,0,0,0.1256322,11.921746,-1.0005124)"
       x1="6.101758"
       y1="154.58195"
       x2="6.101758"
       y2="36.995476" />
    <linearGradient
       inkscape:collect="always"
       xlink:href="#linearGradient4081"
       id="linearGradient2498"
       gradientUnits="userSpaceOnUse"
       gradientTransform="matrix(0.1256322,0,0,0.1256322,11.921746,-1.0005124)"
       x1="6.101758"
       y1="154.58195"
       x2="6.101758"
       y2="36.995476" />
    <linearGradient
       inkscape:collect="always"
       xlink:href="#linearGradient4081"
       id="linearGradient2501"
       gradientUnits="userSpaceOnUse"
       gradientTransform="matrix(0.1256322,0,0,0.1256322,11.921746,-1.0005124)"
       x1="6.101758"
       y1="154.58195"
       x2="6.101758"
       y2="36.995476" />
    <linearGradient
       inkscape:collect="always"
       xlink:href="#linearGradient4081"
       id="linearGradient2504"
       gradientUnits="userSpaceOnUse"
       gradientTransform="matrix(0.1256322,0,0,0.1256322,11.921746,-1.0005124)"
       x1="6.101758"
       y1="154.58195"
       x2="6.101758"
       y2="36.995476" />
    <linearGradient
       inkscape:collect="always"
       xlink:href="#linearGradient4081"
       id="linearGradient2506"
       gradientUnits="userSpaceOnUse"
       x1="6.101758"
       y1="154.58195"
       x2="6.101758"
       y2="36.995476" />
    <linearGradient
       inkscape:collect="always"
       xlink:href="#linearGradient4081"
       id="linearGradient2508"
       gradientUnits="userSpaceOnUse"
       gradientTransform="matrix(0.1317916,0,0,0.1317916,11.619896,-1.9882468)"
       x1="6.101758"
       y1="154.58195"
       x2="6.101758"
       y2="36.995476" />
    <linearGradient
       inkscape:collect="always"
       xlink:href="#linearGradient4081"
       id="linearGradient2510"
       gradientUnits="userSpaceOnUse"
       gradientTransform="matrix(0.1317916,0,0,0.1317916,11.619896,-1.9882468)"
       x1="6.101758"
       y1="154.58195"
       x2="6.101758"
       y2="36.995476" />
    <clipPath
       clipPathUnits="userSpaceOnUse"
       id="clipPath4974">
      <path
         id="path4976"
         d="M 16.625,2 C 15.93281,2.046173 15.13978,2.350316 14.5,2.875 13.716105,3.517873 13.079371,5.1522168 13.25,6.0625 13.337976,6.531842 13.692147,7.1029241 14.03125,7.28125 14.662734,7.613335 15.813682,7.0624791 16.875,5.9375 18.021489,4.722239 18.547995,3.383178 18.15625,2.625 17.915497,2.159052 17.31719,1.953827 16.625,2 z M 10.96875,2.71875 C 10.005789,2.719616 9.496306,3.3967078 9.5,4.6875 c 0.00253,0.88392 0.31322,1.6791318 0.71875,1.875 0.301512,0.145631 0.309051,0.1320361 0.6875,0 C 11.533114,6.343793 12.122053,4.8839409 12,3.90625 11.900109,3.106091 11.556193,2.7182209 10.96875,2.71875 z m -3.8125,1.3125 C 6.976067,4.0573035 6.795347,4.173262 6.625,4.34375 6.281636,4.687396 6.277056,4.8747068 6.28125,5.53125 6.286196,6.305553 6.475145,6.7277249 7,7.28125 7.392601,7.695296 7.675716,7.7200481 8.03125,7.34375 8.416388,6.936117 8.535971,6.296057 8.40625,5.59375 8.208416,4.5226825 7.696799,3.9530895 7.15625,4.03125 z M 4.46875,6.375 C 4.281799,6.4054104 4.1133,6.5115553 3.9375,6.6875 3.476154,7.14923 3.798831,8.4188978 4.53125,9.0625 5.405425,9.830669 6.111327,9.1273309 5.8125,7.78125 5.599846,6.8233425 5.029603,6.2837687 4.46875,6.375 z M 12.5,8.0625 C 11.88094,8.0518483 11.187196,8.1034691 10.46875,8.25 8.61799,8.627471 7.13709,9.3254488 6.1875,10.28125 5.640611,10.831715 5.327697,11.341306 5.0625,12.125 c -0.641919,1.896963 0.546896,4.595678 2.8125,6.4375 0.844088,0.686203 1.359152,0.993313 2.21875,1.28125 0.445736,0.149308 0.799163,0.183992 1.625,0.15625 0.946716,-0.03181 1.139252,-0.07408 1.75,-0.375 0.895036,-0.440989 1.909553,-1.461035 2.34375,-2.34375 0.264885,-0.5385 0.307321,-0.768628 0.28125,-1.21875 -0.04452,-0.768578 -0.342658,-0.977756 -1.3125,-0.96875 -1.38452,0.01285 -1.965756,0.333932 -2.25,1.3125 -0.21469,0.739118 -0.452038,1 -0.9375,1 -0.769368,0 -1.5625,-0.611791 -1.5625,-1.25 0,-0.443994 0.715313,-1.10577 2.5,-2.3125 2.514116,-1.69994 3.378489,-2.734111 3.25,-3.875 C 15.64852,8.7901993 14.35718,8.0944552 12.5,8.0625 z"
         style="fill:#ffffff;fill-opacity:1;stroke:none"
         inkscape:connector-curvature="0" />
    </clipPath>
    <clipPath
       clipPathUnits="userSpaceOnUse"
       id="clipPath4995">
      <path
         style="fill:#ffffff;fill-opacity:1;fill-rule:nonzero;stroke:none;display:inline"
         d="M 30,0 30,22 52,22 52,0 30,0 z M 46.625,2 C 47.31719,1.953827 47.915497,2.159052 48.15625,2.625 48.547995,3.383178 48.021489,4.722239 46.875,5.9375 45.813682,7.0624791 44.662734,7.613335 44.03125,7.28125 43.692147,7.1029241 43.337976,6.531842 43.25,6.0625 43.079371,5.1522168 43.716105,3.517873 44.5,2.875 45.13978,2.350316 45.93281,2.046173 46.625,2 z m -5.65625,0.71875 c 0.587443,-5.291e-4 0.931359,0.387341 1.03125,1.1875 0.122053,0.9776909 -0.466886,2.437543 -1.09375,2.65625 -0.378449,0.1320361 -0.385988,0.145631 -0.6875,0 C 39.81322,6.3666318 39.502528,5.57142 39.5,4.6875 39.496306,3.3967078 40.005789,2.719616 40.96875,2.71875 z m -3.8125,1.3125 c 0.540549,-0.078161 1.052166,0.4914325 1.25,1.5625 0.129721,0.702307 0.01014,1.342367 -0.375,1.75 C 37.675716,7.7200481 37.392601,7.695296 37,7.28125 36.475145,6.7277249 36.286196,6.305553 36.28125,5.53125 36.277056,4.8747068 36.281636,4.687396 36.625,4.34375 36.795347,4.173262 36.976067,4.0573035 37.15625,4.03125 z M 34.46875,6.375 C 35.029603,6.2837687 35.599846,6.8233425 35.8125,7.78125 36.111327,9.1273309 35.405425,9.830669 34.53125,9.0625 33.798831,8.4188978 33.476154,7.14923 33.9375,6.6875 34.1133,6.5115553 34.281799,6.4054104 34.46875,6.375 z M 42.5,8.0625 c 1.85718,0.031955 3.14852,0.7276993 3.28125,1.90625 0.128489,1.140889 -0.735884,2.17506 -3.25,3.875 -1.784687,1.20673 -2.5,1.868506 -2.5,2.3125 0,0.638209 0.793132,1.25 1.5625,1.25 0.485462,0 0.72281,-0.260882 0.9375,-1 0.284244,-0.978568 0.86548,-1.299646 2.25,-1.3125 0.969842,-0.009 1.267977,0.200172 1.3125,0.96875 0.02607,0.450122 -0.01637,0.68025 -0.28125,1.21875 -0.434197,0.882715 -1.448714,1.902761 -2.34375,2.34375 -0.610748,0.300916 -0.803284,0.343192 -1.75,0.375 -0.825837,0.02774 -1.179264,-0.0069 -1.625,-0.15625 C 39.234152,19.555813 38.719088,19.248703 37.875,18.5625 35.609396,16.720678 34.420581,14.021963 35.0625,12.125 35.327697,11.341306 35.640611,10.831715 36.1875,10.28125 37.13709,9.3254488 38.61799,8.627471 40.46875,8.25 41.187196,8.1034691 41.88094,8.0518483 42.5,8.0625 z"
         id="path4997"
         inkscape:connector-curvature="0" />
    </clipPath>
    <inkscape:perspective
       id="perspective4374"
       inkscape:persp3d-origin="0.5 : 0.33333333 : 1"
       inkscape:vp_z="1 : 0.5 : 1"
       inkscape:vp_y="0 : 1000 : 0"
       inkscape:vp_x="0 : 0.5 : 1"
       sodipodi:type="inkscape:persp3d" />
    <linearGradient
       id="StandardGradient-1"
       gradientTransform="matrix(0.9984539,0,0,0.9984539,-0.0459776,0.05767558)"
       x1="10.710332"
       y1="1.9963325"
       x2="10.710332"
       y2="18.974037"
       gradientUnits="userSpaceOnUse">
      <stop
         style="stop-color:#000000;stop-opacity:0.86274511;"
         offset="0"
         id="stop3277-4" />
      <stop
         style="stop-color:#000000;stop-opacity:0.47058824;"
         offset="1"
         id="stop3279-3" />
    </linearGradient>
    <linearGradient
       id="SpecificGradient-5"
       x1="10.761708"
       y1="3.9999998"
       x2="10.761708"
       y2="18.011395"
       gradientUnits="userSpaceOnUse">
      <stop
         style="stop-color:#a50000;stop-opacity:1;"
         offset="0"
         id="stop3292-8" />
      <stop
         style="stop-color:#e73800;stop-opacity:1;"
         offset="1"
         id="stop3294-0" />
    </linearGradient>
    <linearGradient
       inkscape:collect="always"
       xlink:href="#StandardGradient-1"
       id="linearGradient3738"
       gradientUnits="userSpaceOnUse"
       x1="12"
       y1="8"
       x2="12"
       y2="20.041595" />
    <linearGradient
       inkscape:collect="always"
       xlink:href="#StandardGradient-1"
       id="linearGradient3741"
       gradientUnits="userSpaceOnUse"
       x1="12"
       y1="8"
       x2="12"
       y2="20.041595"
       gradientTransform="translate(-30,0)" />
    <linearGradient
       inkscape:collect="always"
       xlink:href="#StandardGradient-1"
       id="linearGradient3747"
       gradientUnits="userSpaceOnUse"
       x1="12"
       y1="8"
       x2="12"
       y2="20.041595"
       gradientTransform="translate(0,1)" />
    <linearGradient
       inkscape:collect="always"
       xlink:href="#StandardGradient-1"
       id="linearGradient3751"
       gradientUnits="userSpaceOnUse"
       x1="12"
       y1="8"
       x2="12"
       y2="20.041595" />
    <clipPath
       clipPathUnits="userSpaceOnUse"
       id="clipPath3758">
      <path
         style="fill:#ff00ff;fill-opacity:1;stroke:none;display:inline"
         d="m -30,0 0,22 22,0 0,-22 -22,0 z m 16.625,2 c 0.69219,-0.046173 1.290497,0.159052 1.53125,0.625 0.391745,0.758178 -0.134761,2.097239 -1.28125,3.3125 -1.061318,1.124979 -2.212266,1.675835 -2.84375,1.34375 C -16.307853,7.102924 -16.66202,6.531842 -16.75,6.0625 -16.920629,5.152217 -16.283895,3.517873 -15.5,2.875 -14.86022,2.350316 -14.06719,2.046173 -13.375,2 z m -5.65625,0.71875 c 0.587443,-5.29e-4 0.93136,0.387341 1.03125,1.1875 0.122053,0.977691 -0.466886,2.437543 -1.09375,2.65625 -0.378449,0.132036 -0.385988,0.145631 -0.6875,0 -0.40553,-0.195868 -0.71625,-0.99108 -0.71875,-1.875 -0.0037,-1.290792 0.505789,-1.967884 1.46875,-1.96875 z m -3.8125,1.3125 c 0.540549,-0.078161 1.052166,0.4914325 1.25,1.5625 0.129721,0.702307 0.01014,1.342367 -0.375,1.75 -0.355534,0.376298 -0.638649,0.351546 -1.03125,-0.0625 -0.524855,-0.553525 -0.71385,-0.975697 -0.71875,-1.75 -0.0042,-0.656543 3.86e-4,-0.843854 0.34375,-1.1875 0.170347,-0.170488 0.351067,-0.286447 0.53125,-0.3125 z m -2.6875,2.34375 c 0.560853,-0.091231 1.131096,0.4483425 1.34375,1.40625 0.298827,1.346081 -0.407075,2.049419 -1.28125,1.28125 -0.732419,-0.643602 -1.055096,-1.91327 -0.59375,-2.375 0.1758,-0.1759448 0.344299,-0.282089 0.53125,-0.3125 z M -17.5,8.0625 c 1.85718,0.031955 3.14852,0.7276993 3.28125,1.90625 0.128489,1.140889 -0.735884,2.17506 -3.25,3.875 -1.784687,1.20673 -2.5,1.868506 -2.5,2.3125 0,0.638209 0.793132,1.25 1.5625,1.25 0.485462,0 0.72281,-0.260882 0.9375,-1 0.284244,-0.978569 0.86548,-1.29965 2.25,-1.3125 0.969842,-0.009 1.26798,0.200172 1.3125,0.96875 0.02607,0.450123 -0.01637,0.68025 -0.28125,1.21875 -0.434197,0.882715 -1.448714,1.902761 -2.34375,2.34375 -0.610748,0.30092 -0.803284,0.34319 -1.75,0.375 -0.825837,0.02774 -1.179264,-0.0069 -1.625,-0.15625 -0.859598,-0.287937 -1.374662,-0.595047 -2.21875,-1.28125 -2.265604,-1.841822 -3.454419,-4.540537 -2.8125,-6.4375 0.265198,-0.783694 0.578111,-1.293285 1.125,-1.84375 0.94959,-0.9558013 2.43049,-1.653779 4.28125,-2.03125 0.718447,-0.146531 1.41219,-0.198152 2.03125,-0.1875 z"
         id="path3760"
         inkscape:connector-curvature="0" />
    </clipPath>
    <linearGradient
       inkscape:collect="always"
       xlink:href="#StandardGradient-1"
       id="linearGradient6801"
       gradientUnits="userSpaceOnUse"
       x1="12"
       y1="8"
       x2="12"
       y2="20.041595" />
    <linearGradient
       inkscape:collect="always"
       xlink:href="#StandardGradient-1"
       id="linearGradient6806"
       gradientUnits="userSpaceOnUse"
       x1="12"
       y1="8"
       x2="12"
       y2="20.041595" />
    <linearGradient
       inkscape:collect="always"
       xlink:href="#StandardGradient-1"
       id="linearGradient6810"
       gradientUnits="userSpaceOnUse"
       x1="12"
       y1="8"
       x2="12"
       y2="20.041595" />
    <linearGradient
       inkscape:collect="always"
       xlink:href="#StandardGradient-1-1"
       id="linearGradient3745"
       x1="13"
       y1="2"
       x2="13"
       y2="18.031219"
       gradientUnits="userSpaceOnUse"
       gradientTransform="matrix(1.1252108,0,0,1.1249999,-2.5078172,-0.2808096)" />
    <linearGradient
       id="StandardGradient-1-1"
       gradientTransform="matrix(0.9984539,0,0,0.9984539,-0.0459776,0.05767558)"
       x1="10.710332"
       y1="1.9963325"
       x2="10.710332"
       y2="18.974037"
       gradientUnits="userSpaceOnUse">
      <stop
         style="stop-color:#000000;stop-opacity:0.86274511;"
         offset="0"
         id="stop3277-4-7" />
      <stop
         style="stop-color:#000000;stop-opacity:0.47058824;"
         offset="1"
         id="stop3279-3-5" />
    </linearGradient>
  </defs>
  <sodipodi:namedview
     id="base"
     pagecolor="#ffffff"
     bordercolor="#f05656"
     borderopacity="1"
     inkscape:pageopacity="0.0"
     inkscape:pageshadow="2"
     inkscape:zoom="32.017796"
     inkscape:cx="3.2794262"
     inkscape:cy="11.69662"
     inkscape:document-units="px"
     inkscape:current-layer="layer1"
     showgrid="true"
     inkscape:showpageshadow="false"
     showguides="false"
     inkscape:guide-bbox="true"
     inkscape:window-width="1038"
     inkscape:window-height="1031"
     inkscape:window-x="0"
     inkscape:window-y="0"
     inkscape:window-maximized="1"
     inkscape:pagecheckerboard="0"
     inkscape:deskcolor="#d1d1d1">
    <sodipodi:guide
       orientation="1,0"
       position="0,112"
       id="guide2383"
       inkscape:locked="false" />
    <sodipodi:guide
       orientation="0,1"
       position="26.278146,128"
       id="guide2385"
       inkscape:locked="false" />
    <sodipodi:guide
       orientation="1,0"
       position="128,54.082119"
       id="guide2387"
       inkscape:locked="false" />
    <sodipodi:guide
       orientation="0,1"
       position="78.156291,0"
       id="guide2389"
       inkscape:locked="false" />
    <sodipodi:guide
       orientation="0,1"
       position="60.863576,64.084768"
       id="guide2391"
       inkscape:locked="false" />
    <inkscape:grid
       type="xygrid"
       id="grid3672"
       visible="true"
       enabled="true"
       empspacing="8"
       snapvisiblegridlinesonly="true"
       originx="0"
       originy="0"
       spacingy="1"
       spacingx="1"
       units="px" />
  </sodipodi:namedview>
  <metadata
     id="metadata7">
    <rdf:RDF>
      <cc:Work
         rdf:about="">
        <dc:format>image/svg+xml</dc:format>
        <dc:type
           rdf:resource="http://purl.org/dc/dcmitype/StillImage" />
        <dc:title />
      </cc:Work>
    </rdf:RDF>
  </metadata>
  <g
     inkscape:groupmode="layer"
     id="layer2"
     inkscape:label="Dark background"
     sodipodi:insensitive="true"
     style="display:none"
     transform="translate(0,-6)">
    <rect
       y="0"
       x="0"
       height="22"
       width="22"
       id="rect4898"
       style="fill:#333333;fill-opacity:1;fill-rule:nonzero;stroke:none;display:inline" />
  </g>
  <g
     inkscape:groupmode="layer"
     id="layer3"
     inkscape:label="Pale darkground"
     sodipodi:insensitive="true"
     style="display:none"
     transform="translate(0,-6)">
    <rect
       style="fill:#efebe7;fill-opacity:1;fill-rule:nonzero;stroke:none"
       id="rect4126"
       width="22"
       height="22"
       x="0"
       y="0" />
  </g>
  <g
     inkscape:label="Button"
     inkscape:groupmode="layer"
     id="layer1"
     style="display:inline"
     transform="translate(0,-6)">
    <path
       style="fill:#d40000;fill-opacity:1;stroke:none"
       d="m -13.375,32 c -0.69219,0.04617 -1.48522,0.350316 -2.125,0.875 -0.783895,0.642873 -1.420629,2.277217 -1.25,3.1875 0.08798,0.469342 0.442147,1.040424 0.78125,1.21875 0.631484,0.332085 1.782432,-0.218771 2.84375,-1.34375 1.146489,-1.215261 1.672995,-2.554322 1.28125,-3.3125 C -12.084503,32.159052 -12.68281,31.953827 -13.375,32 z m -5.65625,0.71875 c -0.962961,8.66e-4 -1.472444,0.677958 -1.46875,1.96875 0.0025,0.88392 0.31322,1.679132 0.71875,1.875 0.301512,0.145631 0.309051,0.132036 0.6875,0 0.626864,-0.218707 1.215803,-1.678559 1.09375,-2.65625 -0.09989,-0.800159 -0.443807,-1.188029 -1.03125,-1.1875 z m -3.8125,1.3125 c -0.180183,0.02605 -0.360903,0.142012 -0.53125,0.3125 -0.343364,0.343646 -0.347944,0.530957 -0.34375,1.1875 0.0049,0.774303 0.193895,1.196475 0.71875,1.75 0.392601,0.414046 0.675716,0.438798 1.03125,0.0625 0.385138,-0.407633 0.504721,-1.047693 0.375,-1.75 -0.197834,-1.071067 -0.709451,-1.64066 -1.25,-1.5625 z m -2.6875,2.34375 c -0.186951,0.03041 -0.35545,0.136555 -0.53125,0.3125 -0.461346,0.46173 -0.138669,1.731398 0.59375,2.375 0.874175,0.768169 1.580077,0.06483 1.28125,-1.28125 -0.212654,-0.957908 -0.782897,-1.497481 -1.34375,-1.40625 z M -17.5,38.0625 c -0.61906,-0.01065 -1.312804,0.04097 -2.03125,0.1875 -1.85076,0.377471 -3.33166,1.075449 -4.28125,2.03125 -0.546889,0.550465 -0.859803,1.060056 -1.125,1.84375 -0.641919,1.896963 0.546896,4.595678 2.8125,6.4375 0.844088,0.686203 1.359152,0.993313 2.21875,1.28125 0.445736,0.149308 0.799163,0.183992 1.625,0.15625 0.946716,-0.03181 1.139252,-0.07408 1.75,-0.375 0.895036,-0.440989 1.909553,-1.461035 2.34375,-2.34375 0.264885,-0.5385 0.307321,-0.768628 0.28125,-1.21875 -0.04452,-0.768578 -0.342658,-0.977756 -1.3125,-0.96875 -1.38452,0.01285 -1.965756,0.333932 -2.25,1.3125 -0.21469,0.739118 -0.452038,1 -0.9375,1 -0.769368,0 -1.5625,-0.611791 -1.5625,-1.25 0,-0.443994 0.715313,-1.10577 2.5,-2.3125 2.514116,-1.69994 3.378489,-2.734111 3.25,-3.875 -0.13273,-1.178551 -1.42407,-1.874295 -3.28125,-1.90625 z"
       id="path4951"
       inkscape:connector-curvature="0" />
    <path
       inkscape:connector-curvature="0"
       id="path2518"
       d="M 7.998497,6.0000015 C 7.286216,7.7459951 6.856608,8.888081 6.063577,10.582174 6.549804,11.097478 7.146625,11.697575 8.115859,12.375328 7.073838,11.946622 6.292047,11.622695 5.760866,11.176056 4.745937,13.293462 3.226838,16.20313 1.3e-5,21.999996 2.536188,20.536093 4.502189,19.633578 6.334406,19.289203 6.255736,18.950882 6.210999,18.58492 6.214037,18.20308 l 0.003,-0.08123 c 0.04024,-1.624556 0.885494,-2.873841 1.886774,-2.789017 1.001283,0.08482 1.779567,1.471339 1.739325,3.0959 -0.0076,0.305687 -0.04206,0.599759 -0.102312,0.872506 1.812323,0.354456 3.757299,1.254661 6.259163,2.698759 -0.493319,-0.908064 -0.933646,-1.726616 -1.354148,-2.506204 -0.662352,-0.513272 -1.353218,-1.181297 -2.762454,-1.904474 0.968625,0.251642 1.591151,0.453235 2.13174,0.777755 C 9.739807,10.408658 9.4646,9.4398835 7.998497,6.0000015 z"
       style="fill:#bebebe;fill-opacity:1;fill-rule:evenodd;stroke:none;display:inline"
       sodipodi:nodetypes="ccccccccsscccccc" />
    <path
       style="fill:none;fill-opacity:0.792157;stroke-width:0.0312326"
       d="m -14.944814,32.742232 c -0.361789,-0.268176 -0.936477,-0.492304 -1.561211,-0.608877 -0.516586,-0.09639 -1.857706,-0.09085 -2.506839,0.01036 l -0.117122,0.01826 v -0.781018 -0.781019 l 0.09901,-0.04101 c 0.144313,-0.05978 0.408184,-0.33724 0.553158,-0.581648 0.70712,-1.192128 0.651788,-2.812264 -0.108611,-3.180153 -0.06807,-0.03294 -0.215018,-0.06466 -0.332734,-0.07182 l -0.21082,-0.01284 V 8.6322978 -9.4478708 H 3.2950425 25.720071 V 11.712237 32.872344 l -20.2465525,-0.0014 -20.2465525,-0.0014 z m -0.06247,-1.452299 c 0.875779,-0.289095 2.03379,-1.30815 2.711585,-2.386207 0.194635,-0.309575 0.434702,-0.832087 0.509708,-1.109396 0.09652,-0.356861 0.09657,-0.837912 9.5e-5,-1.081717 -0.237389,-0.599935 -1.063548,-0.868854 -2.038913,-0.663681 -0.66613,0.140125 -1.410899,0.527751 -1.833435,0.954238 -0.768904,0.776091 -1.298729,2.329143 -1.081039,3.168798 0.10882,0.419729 0.430078,0.914722 0.703303,1.083644 0.266985,0.165064 0.599061,0.176142 1.028696,0.03432 z m 15.5179853,-15.5601 c 2.2324713,-1.264788 3.963502,-2.008894 5.4544198,-2.344656 0.3271409,-0.07367 0.3742456,-0.09218 0.3684326,-0.14474 C 6.3298926,13.20729 6.3052969,13.03782 6.2789016,12.863835 6.1307715,11.887443 6.3352509,10.832017 6.8115941,10.11433 7.0171985,9.804554 7.2300736,9.6075757 7.5058205,9.4719455 7.6963827,9.3782145 7.7380823,9.3697892 8.0114296,9.3697892 c 0.2734005,0 0.3149889,0.00841 0.5053496,0.1021563 0.928088,0.4570662 1.4854468,2.0147165 1.25885,3.5181075 -0.025665,0.170283 -0.046665,0.313347 -0.046665,0.31792 0,0.0046 0.080814,0.02476 0.1795876,0.04487 0.5331952,0.10852 1.4295482,0.387731 2.0919802,0.651642 0.879967,0.350578 2.272799,1.036554 3.393167,1.671151 0.324185,0.183625 0.595415,0.327877 0.602733,0.320559 0.0073,-0.0073 -0.290791,-0.576632 -0.662463,-1.265143 L 14.658201,13.47921 14.10658,13.03869 c -0.582161,-0.464909 -1.300742,-0.964831 -1.708556,-1.188652 -0.134319,-0.07372 -0.228495,-0.139275 -0.209281,-0.14568 0.104755,-0.03492 1.262383,0.372724 1.62763,0.573144 0.109417,0.06004 0.203162,0.104948 0.208318,0.09979 0.0052,-0.0052 -0.26444,-0.522325 -0.599104,-1.149264 C 12.336096,9.1870359 11.761934,8.0842363 10.978363,6.5276198 9.9021691,4.3896857 9.4847706,3.4833338 8.5259885,1.2024563 8.255206,0.55828328 8.0237653,0.02007634 8.0116761,0.00644079 7.9995869,-0.00719475 7.7885873,0.47769184 7.5427884,1.0839666 7.0291075,2.3509844 6.5481618,3.4863602 6.248961,4.1383236 L 6.0411276,4.5911967 6.503002,5.0457496 c 0.4454813,0.4384196 0.7900116,0.740019 1.1761434,1.029588 0.100823,0.075609 0.1702987,0.1418102 0.1543907,0.1471129 C 7.794831,6.2353521 7.0922087,5.9308817 6.657947,5.7130275 6.4660213,5.6167448 6.1842751,5.4543461 6.031844,5.352141 5.8794128,5.2499357 5.7514799,5.1704318 5.7475483,5.1754652 5.7436171,5.1804984 5.507054,5.6554486 5.2218529,6.2309098 4.2262344,8.2398073 2.4238677,11.610153 0.46168606,15.13221 c -0.44564061,0.799911 -0.48482319,0.874513 -0.45931207,0.874513 0.01077682,0 0.23952648,-0.1246 0.50833231,-0.27689 z"
       id="path1"
       transform="translate(0,6)" />
    <path
       style="fill:none;fill-opacity:0.792157;stroke-width:0.0312326"
       d="m -14.944814,32.742232 c -0.361789,-0.268176 -0.936477,-0.492304 -1.561211,-0.608877 -0.516586,-0.09639 -1.857706,-0.09085 -2.506839,0.01036 l -0.117122,0.01826 v -0.781018 -0.781019 l 0.09901,-0.04101 c 0.144313,-0.05978 0.408184,-0.33724 0.553158,-0.581648 0.70712,-1.192128 0.651788,-2.812264 -0.108611,-3.180153 -0.06807,-0.03294 -0.215018,-0.06466 -0.332734,-0.07182 l -0.21082,-0.01284 V 8.6322978 -9.4478708 H 3.2950425 25.720071 V 11.712237 32.872344 l -20.2465525,-0.0014 -20.2465525,-0.0014 z m -0.06247,-1.452299 c 0.875779,-0.289095 2.03379,-1.30815 2.711585,-2.386207 0.194635,-0.309575 0.434702,-0.832087 0.509708,-1.109396 0.09652,-0.356861 0.09657,-0.837912 9.5e-5,-1.081717 -0.237389,-0.599935 -1.063548,-0.868854 -2.038913,-0.663681 -0.66613,0.140125 -1.410899,0.527751 -1.833435,0.954238 -0.768904,0.776091 -1.298729,2.329143 -1.081039,3.168798 0.10882,0.419729 0.430078,0.914722 0.703303,1.083644 0.266985,0.165064 0.599061,0.176142 1.028696,0.03432 z m 15.5179853,-15.5601 c 2.2324713,-1.264788 3.963502,-2.008894 5.4544198,-2.344656 0.3271409,-0.07367 0.3742456,-0.09218 0.3684326,-0.14474 C 6.3298926,13.20729 6.3052969,13.03782 6.2789016,12.863835 6.1307715,11.887443 6.3352509,10.832017 6.8115941,10.11433 7.0171985,9.804554 7.2300736,9.6075757 7.5058205,9.4719455 7.6963827,9.3782145 7.7380823,9.3697892 8.0114296,9.3697892 c 0.2734005,0 0.3149889,0.00841 0.5053496,0.1021563 0.928088,0.4570662 1.4854468,2.0147165 1.25885,3.5181075 -0.025665,0.170283 -0.046665,0.313347 -0.046665,0.31792 0,0.0046 0.080814,0.02476 0.1795876,0.04487 0.5331952,0.10852 1.4295482,0.387731 2.0919802,0.651642 0.879967,0.350578 2.272799,1.036554 3.393167,1.671151 0.324185,0.183625 0.595415,0.327877 0.602733,0.320559 0.0073,-0.0073 -0.290791,-0.576632 -0.662463,-1.265143 L 14.658201,13.47921 14.10658,13.03869 c -0.582161,-0.464909 -1.300742,-0.964831 -1.708556,-1.188652 -0.134319,-0.07372 -0.228495,-0.139275 -0.209281,-0.14568 0.104755,-0.03492 1.262383,0.372724 1.62763,0.573144 0.109417,0.06004 0.203162,0.104948 0.208318,0.09979 0.0052,-0.0052 -0.26444,-0.522325 -0.599104,-1.149264 C 12.336096,9.1870359 11.761934,8.0842363 10.978363,6.5276198 9.9021691,4.3896857 9.4847706,3.4833338 8.5259885,1.2024563 8.255206,0.55828328 8.0237653,0.02007634 8.0116761,0.00644079 7.9995869,-0.00719475 7.7885873,0.47769184 7.5427884,1.0839666 7.0291075,2.3509844 6.5481618,3.4863602 6.248961,4.1383236 L 6.0411276,4.5911967 6.503002,5.0457496 c 0.4454813,0.4384196 0.7900116,0.740019 1.1761434,1.029588 0.100823,0.075609 0.1702987,0.1418102 0.1543907,0.1471129 C 7.794831,6.2353521 7.0922087,5.9308817 6.657947,5.7130275 6.4660213,5.6167448 6.1842751,5.4543461 6.031844,5.352141 5.8794128,5.2499357 5.7514799,5.1704318 5.7475483,5.1754652 5.7436171,5.1804984 5.507054,5.6554486 5.2218529,6.2309098 4.2262344,8.2398073 2.4238677,11.610153 0.46168606,15.13221 c -0.44564061,0.799911 -0.48482319,0.874513 -0.45931207,0.874513 0.01077682,0 0.23952648,-0.1246 0.50833231,-0.27689 z"
       id="path2"
       transform="translate(0,6)" />
    <path
       style="fill:none;fill-opacity:0.792157;stroke-width:0.0312326"
       d="m -14.944814,32.742232 c -0.361789,-0.268176 -0.936477,-0.492304 -1.561211,-0.608877 -0.516586,-0.09639 -1.857706,-0.09085 -2.506839,0.01036 l -0.117122,0.01826 v -0.781018 -0.781019 l 0.09901,-0.04101 c 0.144313,-0.05978 0.408184,-0.33724 0.553158,-0.581648 0.70712,-1.192128 0.651788,-2.812264 -0.108611,-3.180153 -0.06807,-0.03294 -0.215018,-0.06466 -0.332734,-0.07182 l -0.21082,-0.01284 V 8.6322978 -9.4478708 H 3.2950425 25.720071 V 11.712237 32.872344 l -20.2465525,-0.0014 -20.2465525,-0.0014 z m -0.06247,-1.452299 c 0.875779,-0.289095 2.03379,-1.30815 2.711585,-2.386207 0.194635,-0.309575 0.434702,-0.832087 0.509708,-1.109396 0.09652,-0.356861 0.09657,-0.837912 9.5e-5,-1.081717 -0.237389,-0.599935 -1.063548,-0.868854 -2.038913,-0.663681 -0.66613,0.140125 -1.410899,0.527751 -1.833435,0.954238 -0.768904,0.776091 -1.298729,2.329143 -1.081039,3.168798 0.10882,0.419729 0.430078,0.914722 0.703303,1.083644 0.266985,0.165064 0.599061,0.176142 1.028696,0.03432 z m 15.5179853,-15.5601 c 2.2324713,-1.264788 3.963502,-2.008894 5.4544198,-2.344656 0.3271409,-0.07367 0.3742456,-0.09218 0.3684326,-0.14474 C 6.3298926,13.20729 6.3052969,13.03782 6.2789016,12.863835 6.1307715,11.887443 6.3352509,10.832017 6.8115941,10.11433 7.0171985,9.804554 7.2300736,9.6075757 7.5058205,9.4719455 7.6963827,9.3782145 7.7380823,9.3697892 8.0114296,9.3697892 c 0.2734005,0 0.3149889,0.00841 0.5053496,0.1021563 0.928088,0.4570662 1.4854468,2.0147165 1.25885,3.5181075 -0.025665,0.170283 -0.046665,0.313347 -0.046665,0.31792 0,0.0046 0.080814,0.02476 0.1795876,0.04487 0.5331952,0.10852 1.4295482,0.387731 2.0919802,0.651642 0.879967,0.350578 2.272799,1.036554 3.393167,1.671151 0.324185,0.183625 0.595415,0.327877 0.602733,0.320559 0.0073,-0.0073 -0.290791,-0.576632 -0.662463,-1.265143 L 14.658201,13.47921 14.10658,13.03869 c -0.582161,-0.464909 -1.300742,-0.964831 -1.708556,-1.188652 -0.134319,-0.07372 -0.228495,-0.139275 -0.209281,-0.14568 0.104755,-0.03492 1.262383,0.372724 1.62763,0.573144 0.109417,0.06004 0.203162,0.104948 0.208318,0.09979 0.0052,-0.0052 -0.26444,-0.522325 -0.599104,-1.149264 C 12.336096,9.1870359 11.761934,8.0842363 10.978363,6.5276198 9.9021691,4.3896857 9.4847706,3.4833338 8.5259885,1.2024563 8.255206,0.55828328 8.0237653,0.02007634 8.0116761,0.00644079 7.9995869,-0.00719475 7.7885873,0.47769184 7.5427884,1.0839666 7.0291075,2.3509844 6.5481618,3.4863602 6.248961,4.1383236 L 6.0411276,4.5911967 6.503002,5.0457496 c 0.4454813,0.4384196 0.7900116,0.740019 1.1761434,1.029588 0.100823,0.075609 0.1702987,0.1418102 0.1543907,0.1471129 C 7.794831,6.2353521 7.0922087,5.9308817 6.657947,5.7130275 6.4660213,5.6167448 6.1842751,5.4543461 6.031844,5.352141 5.8794128,5.2499357 5.7514799,5.1704318 5.7475483,5.1754652 5.7436171,5.1804984 5.507054,5.6554486 5.2218529,6.2309098 4.2262344,8.2398073 2.4238677,11.610153 0.46168606,15.13221 c -0.44564061,0.799911 -0.48482319,0.874513 -0.45931207,0.874513 0.01077682,0 0.23952648,-0.1246 0.50833231,-0.27689 z"
       id="path3"
       transform="translate(0,6)" />
    <path
       style="fill:#ffffff;fill-opacity:0.792157;stroke-width:0.0312326"
       d="m 0.14407872,15.781172 c 0.0369967,-0.07252 0.23192692,-0.4274 0.43317832,-0.788624 C 2.5205571,11.504542 4.319218,8.1357624 5.3574468,6.0395506 L 5.7693425,5.2079225 6.0038817,5.3761967 C 6.250032,5.5528016 6.883917,5.8768177 7.4645988,6.1228559 7.9826319,6.3423494 8.1050035,6.3883848 8.1034635,6.3631928 8.1026911,6.3505599 7.9670172,6.2418413 7.8019655,6.1215956 7.203077,5.6852848 6.1059793,4.6794177 6.1059793,4.5666413 c 0,-0.024653 0.071672,-0.1978696 0.1592702,-0.3849256 C 6.5591717,3.554081 7.6558774,0.93817254 7.9769841,0.09881497 7.9924627,0.05835468 8.1397667,0.3756644 8.4772016,1.1763407 c 0.5632261,1.3364407 1.0722943,2.4913899 1.470753,3.3367744 0.6725664,1.4269393 2.0569474,4.1266938 3.5707384,6.9634839 0.233341,0.437273 0.419195,0.800101 0.41301,0.806286 -0.0062,0.0062 -0.09988,-0.0335 -0.208217,-0.08819 -0.108334,-0.05469 -0.321313,-0.147451 -0.473285,-0.206143 -0.295865,-0.114263 -1.337365,-0.424864 -1.357415,-0.404815 -0.0137,0.0137 0.09775,0.08216 0.412871,0.253596 0.5376,0.29247 1.350238,0.866595 2.045737,1.445303 l 0.29671,0.246885 0.635749,1.178051 c 0.349663,0.647927 0.628748,1.185052 0.62019,1.19361 -0.0086,0.0086 -0.224372,-0.102776 -0.479587,-0.24741 -2.010659,-1.13947 -3.688611,-1.87426 -5.11199,-2.238586 C 10.109464,13.36323 9.9197256,13.320502 9.8908251,13.320239 9.7704561,13.319143 9.762543,13.285924 9.80898,12.976646 9.9093901,12.3079 9.8448054,11.550154 9.6321986,10.902547 9.3040742,9.9030695 8.7015021,9.3229403 7.9914832,9.3229403 c -1.1385512,0 -1.9891772,1.7187697 -1.7466586,3.5292877 0.02416,0.180368 0.052104,0.349024 0.062097,0.374791 0.014576,0.03758 -0.057552,0.0638 -0.3646718,0.132558 -1.4071147,0.315019 -3.0663777,1.016965 -5.18497393,2.193487 -0.3565057,0.197979 -0.65545337,0.359961 -0.66432816,0.359961 -0.0088748,0 0.01413404,-0.05933 0.05113101,-0.131853 z"
       id="path4"
       transform="translate(0,6)" />
    <path
       style="fill:#ffffff;fill-opacity:0.792157;stroke-width:0.0312326"
       d="m 0.14054684,15.833164 c 0,-0.0096 0.33572636,-0.62446 0.74605857,-1.366427 C 2.7751605,11.05183 3.9315052,8.8870255 5.1055379,6.5684328 L 5.7807243,5.2350096 5.9823924,5.3756011 C 6.2332245,5.5504667 7.0199757,5.9502525 7.5582966,6.1763933 8.2319486,6.4593847 8.2557247,6.450063 7.7847332,6.0876164 7.0885435,5.5518715 6.1827444,4.7215118 6.1493427,4.5884292 6.137647,4.5418298 6.2097953,4.343641 6.3677634,3.9884357 6.714282,3.2092579 7.7290242,0.78979165 7.9520261,0.21105285 l 0.033185,-0.0861223 0.064958,0.12493053 c 0.035727,0.0687118 0.3275854,0.73630927 0.6485747,1.48354992 0.8622211,2.0071891 1.1778402,2.6893185 2.0665292,4.4662662 0.762238,1.524108 1.176413,2.3245132 2.534962,4.8988918 0.320468,0.60727 0.582669,1.116954 0.582669,1.132632 0,0.01568 -0.08081,-0.01211 -0.179587,-0.06176 -0.09877,-0.04965 -0.314512,-0.140645 -0.479419,-0.202217 -0.387509,-0.144685 -1.305116,-0.409475 -1.33062,-0.383971 -0.02586,0.02585 -0.05587,0.006 0.450769,0.298232 0.649413,0.374587 1.434845,0.935878 2.079549,1.486103 l 0.224508,0.191608 0.550848,1.028561 c 0.658546,1.229656 0.660369,1.233223 0.640647,1.252946 -0.0086,0.0086 -0.301233,-0.142739 -0.65038,-0.336225 -1.959405,-1.085833 -3.632983,-1.804711 -4.898067,-2.103943 -0.5378535,-0.12722 -0.5074953,-0.105776 -0.4778443,-0.337519 0.036447,-0.28486 0.031501,-1.457734 -0.00626,-1.484665 -0.017178,-0.01225 -0.034225,-0.08535 -0.037883,-0.162435 -0.00366,-0.07709 -0.020436,-0.144756 -0.037286,-0.150373 -0.01685,-0.0056 -0.02344,-0.02897 -0.014644,-0.05189 0.0088,-0.02292 -0.026733,-0.169201 -0.078953,-0.325067 C 9.4644775,10.369822 9.2293458,9.9744367 8.9342608,9.7047458 8.7432536,9.530176 8.3853426,9.3357422 8.3089595,9.3650531 c -0.026361,0.010116 -0.047929,0.00515 -0.047929,-0.011028 0,-0.016824 -0.1236899,-0.026216 -0.2889018,-0.021935 -0.2499863,0.00648 -0.3162479,0.020566 -0.4919139,0.1046009 -0.7703219,0.3685038 -1.2804876,1.480692 -1.2801915,2.790885 5.24e-5,0.231902 0.020112,0.554955 0.044577,0.717894 0.024465,0.16294 0.039602,0.301134 0.033638,0.307097 -0.00596,0.006 -0.2291222,0.06558 -0.4959073,0.132469 -1.4175045,0.355427 -2.8001267,0.94106 -4.83335375,2.047246 -0.74970576,0.407881 -0.80843091,0.437002 -0.80843041,0.400882 z"
       id="path5"
       transform="translate(0,6)" />
  </g>
</svg>
